<svg xmlns="http://www.w3.org/2000/svg" xmlns:xlink="http://www.w3.org/1999/xlink" version="1.1" x="0px" y="0px" viewBox="0 0 100 125" enable-background="new 0 0 100 100" xml:space="preserve"><g><g><path d="M94.233,61.683c-1.341-0.435-2.793,0.293-3.228,1.633c-7.09,21.455-30.306,33.138-51.76,26.043    C17.791,82.249,6.108,59.036,13.201,37.581c7.092-21.438,30.305-33.118,51.76-26.026c6.892,2.285,12.858,6.257,17.593,11.553    l-7.617-1.251c-1.414-0.235-2.72,0.708-2.938,2.104c-0.236,1.396,0.706,2.72,2.103,2.938l14.058,2.32    c1.47,0.237,2.702-0.725,2.937-2.103l2.322-14.055c0.236-1.396-0.708-2.721-2.104-2.938c-1.414-0.235-2.72,0.707-2.938,2.104    l-1.359,8.198c-5.423-6.294-12.498-11.1-20.459-13.729c-24.121-7.981-50.237,5.15-58.218,29.29    c-7.979,24.122,5.098,50.474,29.292,58.238c24.917,7.979,50.236-5.786,58.234-29.292C96.32,63.569,95.576,62.119,94.233,61.683z"/></g><path d="M80.539,35.654c-0.039-0.157-0.095-0.311-0.163-0.461c-0.293-0.621-0.853-1.085-1.509-1.258l-24.863-12.06   c-0.643-0.311-1.438-0.311-2.08,0l-25.19,12.209c-0.793,0.377-1.311,1.165-1.35,2.056l-0.002,30.748   c0,0.913,0.532,1.755,1.348,2.144l25.1,12.165l0.039,0.037l0.132,0.044l0.176,0.117h0.137l0.127,0.063h0.117l0.076,0.024h0.163   c-0.005,0-0.007,0-0.007,0c0.065,0.005,0.127,0.01,0.183,0.01c0.057,0,0.142,0,0.242-0.013c0.078-0.002,0.161-0.015,0.244-0.036   l0.093-0.024c0.017-0.005,0.031-0.01,0.049-0.015h0.036l0.154-0.062c0.039-0.012,0.1-0.036,0.173-0.07   c0.039-0.015,0.078-0.034,0.117-0.059l25.21-12.222c0.815-0.396,1.343-1.238,1.343-2.139V35.701L80.539,35.654z M50.578,49.967   v25.329l-20.437-9.907V40.058L50.578,49.967z M55.337,49.967l8.63-4.188v10.738c0,1.313,1.067,2.378,2.381,2.378   c1.311,0,2.378-1.064,2.378-2.378V43.463l7.124-3.455V65.34l-20.513,9.956V49.967z M46.995,29.553l5.964-2.896l19.768,9.584   l-5.964,2.896L46.995,29.553z M61.309,41.779l-8.35,4.046l-19.768-9.583l8.352-4.048L61.309,41.779z"/></g><text x="0" y="115" fill="#000000" font-size="5px" font-weight="bold" font-family="'Helvetica Neue', Helvetica, Arial-Unicode, Arial, Sans-serif"></text><text x="0" y="120" fill="#000000" font-size="5px" font-weight="bold" font-family="'Helvetica Neue', Helvetica, Arial-Unicode, Arial, Sans-serif"></text></svg>